<?xml version="1.0" ?><svg viewBox="0 0 0 0" id="icon" xmlns="http://www.w3.org/2000/svg"><title/><path d="M214 64q0-44-31-76t-76-31-76 31-31 76 31 76 76 31 76-31 31-76z m0 286q0-45-31-76t-76-31-76 31-31 76 31 76 76 31 76-31 31-76z m786-232v-107q0-7-5-13t-13-5h-678q-8 0-13 5t-5 13v107q0 7 5 12t13 6h678q7 0 13-6t5-12z m-786 518q0-45-31-76t-76-31-76 31-31 76 31 76 76 31 76-31 31-76z m786-232v-108q0-7-5-12t-13-5h-678q-8 0-13 5t-5 12v108q0 7 5 12t13 5h678q7 0 13-5t5-12z m0 285v-107q0-7-5-12t-13-6h-678q-8 0-13 6t-5 12v107q0 8 5 13t13 5h678q7 0 13-5t5-13z"/></svg>
